<?xml version="1.0" standalone="no"?><!-- Generator: Gravit.io --><svg xmlns="http://www.w3.org/2000/svg" xmlns:xlink="http://www.w3.org/1999/xlink" style="isolation:isolate" viewBox="0 0 80 80" width="80" height="80"><defs><clipPath id="_clipPath_EClfGFvMTo1oStGdM6RNAYZZ6pCCymwZ"><rect width="80" height="80"/></clipPath></defs><g clip-path="url(#_clipPath_EClfGFvMTo1oStGdM6RNAYZZ6pCCymwZ)"><rect width="80" height="80" style="fill:rgb(125,236,225)" fill-opacity="0"/><g><path d=" M 8.553 61.367 L 8.553 20.784 L 8 14.308 L 22.901 14.308 L 22.901 20.393 L 15.451 20.393 L 15.77 24.524 L 15.77 57.599 L 15.451 61.73 L 22.901 61.73 L 22.901 67.843 L 8 67.843 L 8.553 61.367 L 8.553 61.367 Z " fill="rgb(125,236,225)"/><path d=" M 71.348 61.367 L 71.348 20.784 L 71.901 14.308 L 57 14.308 L 57 20.393 L 64.451 20.393 L 64.131 24.524 L 64.131 57.599 L 64.451 61.73 L 57 61.73 L 57 67.843 L 71.901 67.843 L 71.348 61.367 L 71.348 61.367 Z " fill="rgb(125,236,225)"/><path d=" M 43.558 50.082 L 43.558 36.089 L 43.558 36.089 Q 42.873 35.997 42.221 35.939 L 42.221 35.939 L 42.221 35.939 Q 41.571 35.882 40.703 35.882 L 40.703 35.882 L 40.703 35.882 Q 39.266 35.882 38.181 36.669 L 38.181 36.669 L 38.181 36.669 Q 37.096 37.458 36.355 38.691 L 36.355 38.691 L 36.355 38.691 Q 35.613 39.924 35.235 41.442 L 35.235 41.442 L 35.235 41.442 Q 34.859 42.959 34.859 44.42 L 34.859 44.42 L 34.859 44.42 Q 34.859 46.338 35.27 47.732 L 35.27 47.732 L 35.27 47.732 Q 35.681 49.123 36.355 50.047 L 36.355 50.047 L 36.355 50.047 Q 37.029 50.973 37.896 51.417 L 37.896 51.417 L 37.896 51.417 Q 38.764 51.863 39.653 51.863 L 39.653 51.863 L 39.653 51.863 Q 40.475 51.863 41.068 51.737 L 41.068 51.737 L 41.068 51.737 Q 41.662 51.612 42.108 51.371 L 42.108 51.371 L 42.108 51.371 Q 42.553 51.132 42.884 50.813 L 42.884 50.813 L 42.884 50.813 Q 43.214 50.493 43.558 50.082 L 43.558 50.082 L 43.558 50.082 Z  M 43.558 67.843 L 43.558 53.324 L 40.886 56.611 L 40.886 56.611 Q 39.79 56.817 38.786 56.817 L 38.786 56.817 L 38.786 56.817 Q 36.685 56.817 34.665 55.961 L 34.665 55.961 L 34.665 55.961 Q 32.645 55.104 31.058 53.506 L 31.058 53.506 L 31.058 53.506 Q 29.471 51.908 28.502 49.603 L 28.502 49.603 L 28.502 49.603 Q 27.532 47.297 27.532 44.42 L 27.532 44.42 L 27.532 44.42 Q 27.532 41.294 28.582 38.793 L 28.582 38.793 L 28.582 38.793 Q 29.632 36.293 31.446 34.547 L 31.446 34.547 L 31.446 34.547 Q 33.261 32.801 35.67 31.864 L 35.67 31.864 L 35.67 31.864 Q 38.079 30.929 40.794 30.929 L 40.794 30.929 L 40.794 30.929 Q 42.256 30.929 43.808 31.134 L 43.808 31.134 L 43.808 31.134 Q 45.36 31.34 46.765 31.625 L 46.765 31.625 L 46.765 31.625 Q 48.169 31.91 49.287 32.219 L 49.287 32.219 L 49.287 32.219 Q 50.406 32.527 51 32.732 L 51 32.732 L 51 67.843 L 43.558 67.843 L 43.558 67.843 Z " fill="rgb(125,236,225)"/></g></g></svg>